# xmcd CD database file
#
# Track frame offsets:
#	150
#	16415
#	37090
#	51082
#	66977
#	85630
#	109350
#
# Disc length: 1781 seconds
#
# Revision: 0
# Processed by: cddbd v1.5.1PL0 Copyright (c) Steve Scherf et al.
# Submitted via: CDex 1.50beta8
#
DISCID=5a06f307
DTITLE=Dyingrace - Only The Determined Path Remains
DYEAR=1900
DGENRE=Hardcore
TTITLE0=after all
TTITLE1=vengence is mine
TTITLE2=beginning to the end
TTITLE3=insane
TTITLE4=unholy domination
TTITLE5=penance
TTITLE6=revive
EXTD=
EXTT0=
EXTT1=
EXTT2=
EXTT3=
EXTT4=
EXTT5=
EXTT6=
PLAYORDER=
